<svg width="79" height="20" viewBox="0 0 79 20" fill="none" xmlns="http://www.w3.org/2000/svg">
<g clip-path="url(#clip0_1_4712)">
<path d="M44.7183 6.4509C44.7183 4.14132 44.7581 1.99102 44.8776 0L38.785 1.15479V1.71228L39.3824 1.79192C39.8204 1.83174 40.0991 1.99102 40.2584 2.22994C40.4177 2.50868 40.5371 2.90689 40.6168 3.50419C40.6964 4.65898 40.7761 7.28713 40.7362 11.4284C40.7362 15.5299 40.6964 18.1183 40.6168 19.1138C42.8069 19.5916 44.5192 19.7907 45.7934 19.7907C48.1827 19.7907 50.0542 19.1138 51.4081 17.7201C52.762 16.3662 53.4788 14.4548 53.4788 12.1054C53.4788 10.2338 52.9611 8.68084 51.9258 7.44641C50.8904 6.21198 49.5764 5.61467 48.0234 5.61467C46.988 5.61467 45.9129 5.89342 44.7183 6.4509ZM44.8377 18.7156C44.7581 17.4413 44.6785 13.6186 44.6785 7.36677C45.0368 7.24731 45.5147 7.16767 46.112 7.16767C47.0677 7.16767 47.8243 7.64551 48.3818 8.64102C48.9392 9.63653 49.218 10.8311 49.218 12.3443C49.218 14.2159 48.8994 15.729 48.2623 17.0033C47.6252 18.2377 46.8288 18.8749 45.8333 18.8749C45.5147 18.7952 45.1961 18.7554 44.8377 18.7156ZM15.9282 0.398204H0V1.19461L0.836228 1.27425C1.47335 1.39371 1.91138 1.63264 2.19012 1.99102C2.46886 2.38922 2.62814 3.02635 2.66797 3.9024C2.98653 8.203 2.98653 12.2249 2.66797 15.9282C2.58832 16.8042 2.42904 17.4413 2.19012 17.8395C1.91138 18.2377 1.47335 18.4767 0.836228 18.5563L0 18.6758V19.4722H10.2737V18.6758L9.19851 18.5961C8.56138 18.5165 8.12336 18.2377 7.84461 17.8793C7.56587 17.4811 7.40659 16.844 7.36677 15.968C7.24731 14.3752 7.16767 12.5434 7.16767 10.5126L9.31797 10.5524C10.4728 10.5922 11.2692 11.4683 11.6674 13.2204H12.4638V6.72964H11.6674C11.2692 8.44192 10.5126 9.31797 9.31797 9.35779L7.16767 9.39761C7.16767 5.81378 7.24731 3.26527 7.36677 1.71228H10.5126C12.7425 1.71228 14.2557 3.14581 15.1317 6.01288L16.0874 5.73413L15.9282 0.398204ZM14.0566 12.6629C14.0566 14.7335 14.6539 16.4458 15.8087 17.7997C16.9635 19.1536 18.6758 19.7907 20.8261 19.7907C22.9764 19.7907 24.7285 19.1138 26.0027 17.7201C27.277 16.3662 27.8743 14.6539 27.8743 12.5832C27.8743 10.5126 27.277 8.8003 26.1222 7.44641C24.9674 6.09252 23.2551 5.45539 21.1048 5.45539C18.9545 5.45539 17.2024 6.13234 15.9282 7.52605C14.6539 8.87994 14.0566 10.5922 14.0566 12.6629ZM22.9365 8.12336C23.4144 9.27815 23.6135 10.7913 23.6135 12.6231C23.6135 16.844 22.7374 18.9147 21.0252 18.9147C20.1491 18.9147 19.4722 18.3174 18.9943 17.1228C18.5165 15.9282 18.3174 14.415 18.3174 12.6231C18.3174 8.44192 19.1934 6.37126 20.9057 6.37126C21.7817 6.33144 22.4587 6.92875 22.9365 8.12336ZM56.5848 17.7997C57.8988 19.1138 59.5713 19.7907 61.5623 19.7907C62.7967 19.7907 63.8719 19.5518 64.8276 19.0341C65.7833 18.5563 66.5398 17.959 67.0575 17.2422L66.6593 16.7644C65.7833 17.4413 64.7878 17.7599 63.633 17.7599C62.0402 17.7599 60.8057 17.2422 59.9695 16.1671C59.0934 15.0919 58.6952 13.738 58.7749 11.9859H67.2964C67.2964 10.0746 66.8186 8.52156 65.8231 7.28713C64.8276 6.09252 63.4339 5.49521 61.6419 5.49521C59.412 5.49521 57.6997 6.21198 56.4653 7.60569C55.2309 8.9994 54.6336 10.7117 54.6336 12.7425C54.6336 14.8132 55.2707 16.4856 56.5848 17.7997ZM59.5315 7.80479C59.9695 6.8491 60.527 6.37126 61.2836 6.37126C62.4782 6.37126 63.0755 7.88443 63.0755 10.9506L58.8545 11.0302C58.8943 9.83563 59.0934 8.76048 59.5315 7.80479ZM78.0081 6.21198C76.933 5.73413 75.5791 5.45539 73.9464 5.45539C72.274 5.45539 70.9599 5.89342 69.9644 6.72964C68.9689 7.56587 68.4512 8.6012 68.4512 9.83563C68.4512 10.9108 68.7698 11.747 69.3671 12.3443C69.9644 12.9416 70.9201 13.4593 72.1545 13.8973C73.2695 14.2955 74.0659 14.6937 74.4641 15.0521C74.8623 15.4503 75.1012 15.8883 75.1012 16.4856C75.1012 17.0431 74.9021 17.5608 74.4641 17.959C74.0659 18.397 73.5084 18.5961 72.7917 18.5961C71.0396 18.5961 69.7255 17.3219 68.8096 14.7734L68.1327 14.9725L68.2919 18.9545C69.7255 19.512 71.3183 19.7907 73.0704 19.7907C74.9021 19.7907 76.2958 19.3925 77.3312 18.5563C78.3665 17.7599 78.8842 16.6051 78.8842 15.1716C78.8842 14.2159 78.6452 13.4195 78.1276 12.8222C77.6099 12.2249 76.7737 11.7072 75.5791 11.2293C74.265 10.7515 73.3491 10.3135 72.8713 9.91527C72.3934 9.51707 72.1545 9.03923 72.1545 8.44192C72.1545 7.84461 72.3138 7.36677 72.6722 6.96857C73.0306 6.57036 73.4686 6.41108 74.0261 6.41108C75.6189 6.41108 76.7737 7.56587 77.4905 9.83563L78.1674 9.63653L78.0081 6.21198ZM39.7009 5.8536C39.1434 5.57485 38.5461 5.45539 37.8692 5.45539C37.1922 5.45539 36.5153 5.73413 35.7587 6.29162C35.0021 6.8491 34.4446 7.60569 34.0066 8.64102L34.0464 5.45539L27.9937 6.65V7.20749L28.591 7.24731C29.3476 7.32695 29.7856 7.92425 29.8653 8.9994C30.1042 11.4683 30.1042 14.0964 29.8653 16.8838C29.7856 17.959 29.3476 18.5165 28.591 18.6359L27.9937 18.7156V19.4722H36.4356V18.7156L35.3605 18.6359C34.6039 18.5563 34.1659 17.959 34.0862 16.8838C33.8473 14.5743 33.8075 12.1054 34.0066 9.55689C34.2455 9.15869 34.7632 8.91976 35.5596 8.84012C36.356 8.76048 37.2719 8.9994 38.2276 9.55689L39.7009 5.8536Z" fill="black"/>
</g>
<defs>
<clipPath id="clip0_1_4712">
<rect width="79" height="19.916" fill="white"/>
</clipPath>
</defs>
</svg>
