<svg width="167" height="21" viewBox="0 0 167 21" fill="none" xmlns="http://www.w3.org/2000/svg">
<path d="M87.7217 19.9385H89.4391L91.0672 16.229H96.9888L98.6169 19.9385H100.352L94.7168 7.21504H93.3392L87.7217 19.9385ZM91.7112 14.7237L94.0191 9.47301L96.3269 14.7237H91.7112Z" fill="#395BB6"/>
<path d="M102.137 19.9385H105.787C109.687 19.9385 112.549 17.2146 112.549 13.5768C112.549 9.93894 109.687 7.21504 105.787 7.21504H102.137V19.9385ZM103.801 18.3794V8.77412H105.787C108.846 8.77412 110.868 10.817 110.868 13.5768C110.868 16.3365 108.846 18.3794 105.787 18.3794H103.801Z" fill="#395BB6"/>
<path d="M118.511 19.9385H119.907L125.309 7.21504H123.502L119.227 17.3221L114.933 7.21504H113.09L118.511 19.9385Z" fill="#395BB6"/>
<path d="M127.173 19.9385H128.837V7.21504H127.173V19.9385Z" fill="#395BB6"/>
<path d="M131.167 17.8598C131.829 19.1679 133.529 20.1536 135.622 20.1536C137.983 20.1536 139.665 18.7916 139.665 16.6232C139.665 14.7416 138.592 13.6664 136.713 12.9496L135.174 12.3582C133.886 11.8743 133.26 11.3905 133.26 10.3153C133.26 9.25797 134.298 8.55907 135.55 8.55907C136.641 8.55907 137.429 9.04292 138.073 9.8135L139.289 8.73828C138.502 7.71682 137.178 7 135.586 7C133.314 7 131.614 8.30819 131.614 10.387C131.614 12.1252 132.509 13.1646 134.495 13.8993L136.176 14.5445C137.357 14.9925 138.001 15.6735 138.001 16.6949C138.001 17.8777 136.964 18.5945 135.658 18.5945C134.226 18.5945 133.189 17.9314 132.509 16.8562L131.167 17.8598Z" fill="#395BB6"/>
<path d="M154.366 13.5768C154.366 9.88518 151.467 7 147.8 7C144.15 7 141.234 9.88518 141.234 13.5768C141.234 17.2684 144.15 20.1536 147.8 20.1536C151.467 20.1536 154.366 17.2684 154.366 13.5768ZM142.916 13.5768C142.916 10.7812 145.027 8.57699 147.8 8.57699C150.591 8.57699 152.702 10.7812 152.702 13.5768C152.702 16.3724 150.591 18.5766 147.8 18.5766C145.027 18.5766 142.916 16.3724 142.916 13.5768Z" fill="#395BB6"/>
<path d="M156.874 19.9385H158.537V14.1502H159.772L164.656 19.9385H166.749L161.865 14.1323C163.815 13.8456 164.996 12.5912 164.996 10.7274C164.996 8.63075 163.547 7.21504 161.203 7.21504H156.874V19.9385ZM158.537 12.6628V8.7562H161.006C162.455 8.7562 163.332 9.43717 163.332 10.7274C163.332 11.9998 162.455 12.6628 161.006 12.6628H158.537Z" fill="#395BB6"/>
<path d="M79.7195 14.1887C79.2336 13.2152 78.3428 12.5582 76.4802 11.7713C74.9578 11.1305 74.1884 10.6925 73.7187 10.1814C73.3381 9.76771 73.2247 9.42702 73.2652 8.81052C73.2976 8.23458 73.4434 7.89388 73.7997 7.51262C74.2613 7.0178 74.893 6.84745 75.6542 7.00969C76.9013 7.26927 77.695 8.13723 78.3833 9.9624C78.6263 10.6113 78.6586 10.6357 79.0959 10.4734L79.3713 10.368L79.3632 9.6217C79.3551 9.208 79.3389 8.34003 79.3146 7.69919L79.2822 6.50676L79.0716 6.41752C77.9298 5.93081 75.7595 5.63068 74.3504 5.76047C72.7469 5.90648 71.5646 6.41752 70.6576 7.3585C69.7587 8.29136 69.3457 9.39457 69.4186 10.7006C69.4753 11.7794 69.7992 12.5582 70.4632 13.2315C71.0787 13.8642 71.597 14.1643 73.079 14.7403C75.4679 15.6731 76.1077 16.2328 76.0996 17.3847C76.0996 18.3582 75.5813 19.072 74.6419 19.4046C74.3099 19.5263 73.4596 19.5263 73.0061 19.4046C71.8157 19.0882 70.9086 18.058 70.1312 16.1436L69.9288 15.6569L69.6939 15.665C69.5643 15.6731 69.3862 15.7137 69.3052 15.7543L69.1432 15.8273L69.1594 16.6628C69.1675 17.1252 69.1918 18.0905 69.208 18.8205L69.2404 20.1346L69.5077 20.2482C70.0502 20.4835 71.6861 20.8404 72.7065 20.9539C72.836 20.9702 73.5325 20.9702 74.2613 20.962C75.5246 20.9458 75.6137 20.9377 76.2535 20.7755C78.1323 20.2807 79.347 19.2342 79.8815 17.6443C80.0434 17.1576 80.0677 17.0035 80.092 16.2815C80.1244 15.3243 80.0353 14.8214 79.7195 14.1887Z" fill="black"/>
<path d="M65.2076 6.29466C63.6284 5.4997 61.1827 5.55649 59.393 6.43257C57.7005 7.25997 56.5344 8.63899 55.8865 10.5858C55.5464 11.5998 55.4411 12.4191 55.4735 13.7332C55.4978 14.5606 55.5302 14.9906 55.6193 15.3799C56.2833 18.3651 58.3322 20.3931 61.1827 20.9122C61.8144 21.0258 63.2397 21.0258 63.8794 20.9203C64.7864 20.7581 65.8311 20.3606 66.4952 19.9063C67.2969 19.3628 68.131 18.5436 68.131 18.284C68.131 18.1298 67.8557 17.7729 67.7342 17.7729C67.6856 17.7729 67.4589 17.8865 67.2402 18.0325C66.4547 18.5436 65.7016 18.7545 64.6488 18.7545C63.2073 18.7545 62.2841 18.3894 61.369 17.4647C60.9641 17.051 60.794 16.832 60.5835 16.4182C60.1219 15.5178 59.8708 14.4876 59.8303 13.3195L59.8142 12.8166L68.3335 12.7841L68.3497 12.4921C68.3578 12.3299 68.3416 11.9162 68.3011 11.5674C68.0338 8.97157 66.9892 7.18697 65.2076 6.29466ZM60.9155 11.5511L59.8384 11.5674V11.3321C59.8384 11.2023 59.8789 10.8616 59.9194 10.5777C60.2757 8.25773 61.1423 6.86249 62.2274 6.86249C63.2235 6.86249 63.839 8.2334 63.9685 10.7481L64.0009 11.4619L62.9967 11.4944C62.4461 11.5187 61.5067 11.543 60.9155 11.5511Z" fill="black"/>
<path d="M49.7691 6.01899C49.4289 5.94598 49.1212 5.93787 48.4653 5.95409C47.4692 5.98654 46.7889 6.14067 46.0439 6.48136C45.8009 6.59493 45.5823 6.69227 45.5661 6.69227C45.5499 6.69227 45.5499 5.18347 45.5742 3.35019C45.5985 0.754404 45.5904 3.27606e-06 45.5337 3.27606e-06C45.3474 3.27606e-06 39.4681 1.11944 39.4034 1.16811C39.3548 1.20867 39.3386 1.33035 39.3467 1.51692C39.3629 1.84139 39.3305 1.81706 40.0431 1.97929C40.2618 2.02796 40.5128 2.12531 40.6019 2.1902C40.8448 2.36055 41.0392 2.73369 41.1769 3.26096C41.2821 3.67467 41.2983 3.97481 41.3469 6.80584C41.3955 9.69365 41.3874 12.6545 41.3064 18.0894L41.274 20.3445L41.6952 20.4418C42.3025 20.5797 44.0517 20.8718 44.6186 20.9286C45.4527 21.0178 47.4125 21.0016 48.028 20.9123C50.7327 20.5067 52.7654 18.933 53.7129 16.5319C53.9639 15.8911 54.2069 14.9096 54.2879 14.1876C54.385 13.3359 54.3284 11.6243 54.1826 10.9348C53.6238 8.29842 51.988 6.48136 49.7691 6.01899ZM45.6633 19.6307C45.5904 19.436 45.5013 12.6788 45.5337 9.97757L45.558 7.86849L45.9386 7.75492C46.1897 7.68192 46.4893 7.64136 46.8375 7.64136C47.3234 7.64136 47.3882 7.65758 47.8012 7.86038C48.7892 8.34709 49.4694 9.57197 49.7853 11.4215C49.8986 12.1029 49.9148 13.9767 49.8096 14.796C49.5504 16.8077 48.8945 18.4382 48.0199 19.2251C47.6716 19.5414 47.3477 19.7037 46.9266 19.7848C46.627 19.8416 46.5298 19.8416 45.9872 19.801C45.7605 19.7848 45.7119 19.7604 45.6633 19.6307Z" fill="black"/>
<path d="M38.7825 5.71103C38.1103 5.71103 37.754 5.78404 37.2114 6.03551C36.2234 6.48977 35.4865 7.22795 34.8225 8.4285L34.6119 8.80164L34.6362 8.13647C34.6524 7.77144 34.6767 7.09004 34.6929 6.61956L34.7172 5.76782H34.5795C34.4014 5.76782 28.6921 6.91158 28.522 6.98459C28.4087 7.03326 28.3925 7.08193 28.3925 7.35774C28.3925 7.64165 28.4087 7.6741 28.522 7.69843C28.5949 7.71466 28.8541 7.76333 29.1051 7.812C29.6072 7.90934 29.7611 7.99046 29.9716 8.26626C30.3522 8.77731 30.4332 9.66961 30.4332 13.4741C30.4332 16.5809 30.3684 18.1303 30.2146 18.617C30.0364 19.2091 29.7125 19.5174 29.1537 19.6147C28.9755 19.6472 28.7326 19.6958 28.6273 19.7202L28.4249 19.7607L28.4087 20.1582C28.4006 20.434 28.4168 20.5719 28.4654 20.6044C28.5058 20.6287 30.4575 20.6449 32.7979 20.6368L37.0576 20.6206L37.0738 20.1744C37.0819 19.9311 37.0738 19.7283 37.0414 19.7283C36.7093 19.7283 35.6971 19.5904 35.5351 19.5255C35.0573 19.3227 34.8225 18.8928 34.7253 18.0167C34.6038 16.9865 34.539 14.4231 34.5714 12.3303C34.6038 10.2131 34.6038 10.205 34.7334 10.059C35.0411 9.72639 35.8266 9.46681 36.5231 9.46681C37.0819 9.46681 37.6649 9.61283 38.2804 9.90485C38.58 10.0509 38.8473 10.1482 38.8878 10.1401C38.9687 10.1076 40.3616 6.40865 40.3616 6.2383C40.3697 5.97061 39.5761 5.71103 38.7825 5.71103Z" fill="black"/>
<path d="M28.4008 12.1437C28.1012 9.58037 27.016 7.70654 25.2263 6.652C23.2423 5.48389 20.2216 5.41089 18.0756 6.48976C16.5289 7.2685 15.2574 8.76919 14.6987 10.4889C14.1156 12.2654 14.1156 14.6016 14.6987 16.4187C15.0712 17.5786 15.5733 18.4304 16.3507 19.201C17.282 20.1258 18.5048 20.7179 19.8977 20.9207C20.3998 20.9937 21.9709 20.9937 22.4891 20.9207C22.7321 20.8883 23.1532 20.7909 23.4285 20.7179C25.9633 19.9798 27.6882 18.0329 28.2794 15.2424C28.4332 14.5773 28.4899 12.9225 28.4008 12.1437ZM21.9952 19.8175C20.4241 20.288 19.2985 18.7873 18.8612 15.6399C18.7235 14.6259 18.7235 11.8517 18.8612 10.6917C19.1689 8.1608 19.9463 6.87913 21.1772 6.87102C21.7279 6.87102 22.0356 7.00892 22.473 7.43885C23.5014 8.47716 23.9954 10.4646 23.9873 13.5876C23.9792 16.078 23.7363 17.6435 23.1775 18.7062C22.9022 19.2172 22.4001 19.6958 21.9952 19.8175Z" fill="black"/>
<path d="M7.69977 1.64567H9.53461C11.6398 1.64567 11.9838 1.68735 12.7292 2.06252C13.8104 2.60443 14.5968 3.67157 15.2931 5.53073C15.5716 6.2894 15.5716 6.28106 16.1941 6.08931L16.6118 5.96425L16.5709 3.2297C16.5463 1.72904 16.5135 0.386774 16.4972 0.253382L16.4562 0.0199447L8.4206 0.00327066C3.99733 -0.00506638 0.294885 0.00327067 0.19659 0.0199447L0 0.0532929L0.032765 1.02039L0.647108 1.09542C1.44166 1.19547 1.91675 1.42057 2.19525 1.83742C2.82598 2.7795 2.94066 4.06341 2.94066 10.1494C2.94066 16.6357 2.8096 18.2114 2.19525 19.0284C1.87579 19.4536 1.62187 19.587 0.909228 19.7204C-0.0245738 19.8954 0.00819124 19.8704 0.00819124 20.3623C0.00819124 20.6374 0.032765 20.7792 0.0819124 20.8042C0.188399 20.8459 10.4684 20.8542 10.5749 20.8042C10.7141 20.7458 10.706 19.9788 10.5667 19.9038C10.5094 19.8704 10.1653 19.8037 9.79673 19.7454C9.42812 19.687 9.01856 19.5953 8.89569 19.5369C8.22401 19.2368 7.84721 18.4114 7.70796 16.9191C7.60966 15.852 7.52775 13.8761 7.52775 12.4171V11.0832L8.15029 11.0999C9.48546 11.1416 10.1735 11.2166 10.452 11.3416C11.0582 11.6168 11.5415 12.3671 11.7954 13.4259L11.9264 13.9928L12.8766 14.0262V6.91467L11.9264 6.94802L11.7872 7.5066C11.5169 8.59875 11.0828 9.26572 10.4356 9.57419C10.1735 9.69924 9.98513 9.73259 9.3544 9.77428C8.93665 9.79929 8.35507 9.8243 8.05199 9.8243H7.51137V8.05685C7.51137 6.2894 7.60147 2.53773 7.667 1.95414L7.69977 1.64567Z" fill="black"/>
</svg>
