<svg width="28" height="28" viewBox="0 0 28 28" fill="none" xmlns="http://www.w3.org/2000/svg">
<path fill-rule="evenodd" clip-rule="evenodd" d="M21.1495 9.80176C23.5085 9.37876 25.0375 7.70326 24.9765 6.43376C24.8785 4.38426 23.399 3.35426 20.2095 3.34126H20.1685C19.9971 3.34155 19.8317 3.27851 19.704 3.16426C19.5763 3.05001 19.4952 2.8926 19.4765 2.72226C19.4675 2.64164 19.4751 2.56005 19.4987 2.48245C19.5223 2.40485 19.5615 2.33288 19.6139 2.27093C19.6662 2.20898 19.7307 2.15835 19.8032 2.12213C19.8758 2.08591 19.955 2.06486 20.036 2.06026L20.152 2.05326C21.101 1.99326 22.15 1.95826 22.716 2.09226C25.076 2.65176 26.386 4.07476 26.496 6.36076C26.5835 8.17876 25.231 9.95576 23.3275 11.3608L23.272 11.4008C23.6403 12.0454 23.8762 12.7658 23.9795 13.5618C24.3385 15.8658 24.0045 17.2988 24.2605 18.2478C24.517 19.1973 25.6835 19.7178 26.144 20.7783C26.6045 21.8388 26.519 22.3033 26.384 23.1383C26.3043 23.6336 26.1247 24.3573 25.845 25.3093C25.8141 25.4143 25.75 25.5066 25.6623 25.5722C25.5746 25.6378 25.468 25.6733 25.3585 25.6733H23.673C23.393 25.6733 23.166 25.4463 23.166 25.1663V24.9113C23.166 24.8442 23.1793 24.7778 23.2051 24.716C23.2309 24.6541 23.2688 24.5979 23.3164 24.5508C23.3641 24.5036 23.4206 24.4664 23.4828 24.4413C23.5449 24.4161 23.6115 24.4035 23.6785 24.4043C23.9062 24.4073 24.1002 24.3473 24.2605 24.2243C24.666 23.9143 24.6995 23.7413 24.6995 23.1383C24.6995 22.7363 24.5532 22.3318 24.2605 21.9248C23.0855 21.1608 22.103 20.5638 21.236 20.1248C21.1467 21.0058 20.9712 21.8068 20.7095 22.5278C20.4345 23.2858 19.9567 24.2501 19.276 25.4208C19.2316 25.4977 19.1676 25.5616 19.0907 25.6059C19.0137 25.6502 18.9263 25.6735 18.8375 25.6733H17.5035C17.2285 25.6733 17.0035 25.4543 16.997 25.1793L16.991 24.9493C16.9875 24.8166 17.036 24.6879 17.1263 24.5907C17.2166 24.4934 17.3415 24.4355 17.474 24.4293L18.1715 24.3963C18.3775 24.3863 18.557 24.2528 18.6255 24.0583C18.8565 23.4023 18.9515 22.7576 18.9105 22.1243C18.8638 21.4099 18.6262 20.4356 18.1975 19.2013C16.4175 19.1853 12.8065 19.9578 11.975 20.0268C11.779 20.0431 11.5777 20.0421 11.371 20.0238C11.2038 20.5493 11.0992 21.0927 11.0595 21.6428C11.0082 22.3084 11.0035 23.4788 11.0455 25.1538C11.0472 25.2214 11.0353 25.2887 11.0106 25.3516C10.9858 25.4146 10.9487 25.472 10.9015 25.5204C10.8542 25.5688 10.7978 25.6072 10.7355 25.6335C10.6731 25.6598 10.6061 25.6733 10.5385 25.6733H9.153C8.873 25.6733 8.646 25.4463 8.646 25.1663V24.8183C8.646 24.5383 8.873 24.3113 9.153 24.3113H9.3665C9.44565 24.3112 9.52364 24.2921 9.59383 24.2556C9.66402 24.219 9.72435 24.166 9.7697 24.1011C9.81505 24.0362 9.84407 23.9614 9.8543 23.8829C9.86454 23.8044 9.85569 23.7246 9.8285 23.6503C9.56625 22.9398 9.36208 22.2092 9.218 21.4658L7.552 25.3658C7.472 25.5523 7.2885 25.6733 7.0855 25.6733H5.2455C4.9655 25.6733 4.738 25.4463 4.738 25.1663V24.9073C4.738 24.6613 4.9145 24.4508 5.1565 24.4083L6.0325 24.2528C6.1425 24.2328 6.2435 24.1778 6.319 24.0948C6.67467 23.7031 6.904 23.2153 7.007 22.6313C7.261 21.1908 7.422 21.0348 7.007 19.6498C6.872 19.1973 5.881 18.7563 5.247 16.7518C4.84067 15.4688 4.48033 13.2893 4.166 10.2133C4.15469 10.1023 4.10711 9.9982 4.03064 9.91702C3.95417 9.83585 3.85307 9.78216 3.743 9.76426L2.769 9.60676C2.619 9.58226 2.4875 9.49176 2.411 9.36026L1.64 8.02826L1.619 7.99476C1.5435 7.89124 1.50193 7.76687 1.5 7.63876C1.5 7.54076 1.5255 7.43959 1.5765 7.33526C1.60383 7.27959 1.64 7.23059 1.685 7.18826L2.6925 6.24176C2.7625 6.17526 2.813 6.09026 2.837 5.99676L2.894 5.77026C2.945 5.56876 3.057 5.38726 3.214 5.25126C3.517 4.99026 3.74067 4.81526 3.885 4.72626C4.065 4.61559 4.43867 4.48292 5.006 4.32826C4.718 3.92526 4.56 3.57259 4.532 3.27026C4.4895 2.81676 4.4535 2.36776 4.637 2.35026C4.76 2.33892 5.07117 2.67692 5.5705 3.36426C5.5315 2.49559 5.61933 2.11192 5.834 2.21326C6.04867 2.31459 6.52033 2.90009 7.249 3.96976L7.96 4.77976C8.30535 5.17318 8.55942 5.63812 8.704 6.14126C9.06333 7.39126 9.405 8.29109 9.729 8.84076C10.3085 9.82176 11.019 11.0298 13.328 10.8508C15.6365 10.6723 16.413 10.2048 17.951 9.96276C18.7382 9.84298 19.5314 9.76603 20.327 9.73226C20.603 9.71925 20.8796 9.74261 21.1495 9.80176Z" fill="black"/>
</svg>
