<svg width="16" height="14" viewBox="0 0 16 14" fill="none" xmlns="http://www.w3.org/2000/svg">
<g clip-path="url(#clip0_4866_538)">
<path d="M15.5556 2.17691C14.9771 2.43066 14.3607 2.59886 13.7181 2.68053C14.3792 2.2858 14.8838 1.66553 15.121 0.917886C14.5046 1.28539 13.824 1.54497 13.0988 1.68983C12.5135 1.06664 11.6793 0.680664 10.7693 0.680664C9.00375 0.680664 7.58236 2.11372 7.58236 3.87053C7.58236 4.1233 7.60375 4.36636 7.65625 4.59775C5.005 4.46844 2.65903 3.19775 1.08306 1.26205C0.807917 1.73941 0.646528 2.2858 0.646528 2.874C0.646528 3.97844 1.21528 4.95747 2.06306 5.52428C1.55069 5.51455 1.04806 5.3658 0.622222 5.1315C0.622222 5.14122 0.622222 5.15386 0.622222 5.1665C0.622222 6.71622 1.72764 8.00344 3.17722 8.29997C2.91764 8.37094 2.63472 8.40497 2.34111 8.40497C2.13694 8.40497 1.93083 8.3933 1.73736 8.35053C2.15056 9.61344 3.32306 10.5419 4.71722 10.5721C3.63222 11.4208 2.25458 11.9322 0.763195 11.9322C0.501667 11.9322 0.250833 11.9205 0 11.8884C1.41264 12.7994 3.08681 13.3196 4.89222 13.3196C10.7606 13.3196 13.9689 8.45844 13.9689 4.24483C13.9689 4.10386 13.964 3.96775 13.9572 3.83261C14.5901 3.38344 15.1219 2.82247 15.5556 2.17691Z" fill="#333333"/>
</g>
<defs>
<clipPath id="clip0_4866_538">
<rect width="15.5556" height="14" fill="white"/>
</clipPath>
</defs>
</svg>
