<svg width="24" height="24" viewBox="0 0 24 24" fill="none" xmlns="http://www.w3.org/2000/svg">
<path d="M8.08733 19V10.2289H5.172V19H8.08733ZM6.63004 9.03066C7.64667 9.03066 8.27947 8.35714 8.27947 7.51547C8.26053 6.65482 7.64671 6 6.64933 6C5.65212 6 5 6.65484 5 7.51547C5 8.35718 5.63264 9.03066 6.61101 9.03066H6.62995H6.63004ZM9.70095 19H12.6163V14.1018C12.6163 13.8397 12.6352 13.5778 12.7122 13.3904C12.923 12.8666 13.4026 12.3242 14.208 12.3242C15.2629 12.3242 15.6849 13.1285 15.6849 14.3076V18.9999H18.6001V13.9707C18.6001 11.2766 17.1618 10.023 15.2437 10.023C13.671 10.023 12.9805 10.9021 12.5969 11.5008H12.6163V10.2287H9.70102C9.73927 11.0518 9.70102 18.9998 9.70102 18.9998L9.70095 19Z" fill="#333333"/>
</svg>
