<svg width="93" height="26" viewBox="0 0 93 26" fill="none" xmlns="http://www.w3.org/2000/svg">
<g clip-path="url(#clip0_1_4475)">
<mask id="mask0_1_4475" style="mask-type:luminance" maskUnits="userSpaceOnUse" x="0" y="-1" width="94" height="27">
<path d="M0 -0.00146484H93.001V25.8321H0V-0.00146484Z" fill="white"/>
</mask>
<g mask="url(#mask0_1_4475)">
<path d="M3.49437 10.3016C3.56728 10.9107 3.78543 11.5278 4.20049 11.8653C4.56446 12.2104 5.07424 12.3791 5.67875 12.3791C6.5525 12.3791 7.18571 12.0347 7.49858 11.4032H11.1612C10.9649 12.2328 10.6296 12.7982 10.0911 13.4366C9.59378 14.0444 8.96324 14.5295 8.24833 14.8546C7.49858 15.199 6.69831 15.3684 5.75108 15.3684C4.65918 15.3684 3.6178 15.0963 2.79514 14.6336C1.94321 14.1932 1.26637 13.459 0.757159 12.5554C0.297895 11.7258 0.00683594 10.6466 0.00683594 9.47143C0.00683594 8.29629 0.246801 7.2463 0.73477 6.36566C1.19885 5.49025 1.90701 4.76833 2.77333 4.28749C3.6178 3.82478 4.63737 3.60433 5.75854 3.60433C6.8803 3.60433 7.84131 3.84659 8.67085 4.28749C9.52279 4.74962 10.2002 5.41039 10.71 6.2916C11.1687 7.12172 11.4161 8.1499 11.4161 9.30265C11.4161 9.67006 11.3874 9.96342 11.3432 10.3084H3.49437V10.3016ZM7.90675 8.34049C7.88494 7.82669 7.6886 7.31289 7.32406 6.99715C6.91646 6.65155 6.40668 6.50459 5.75108 6.50459C5.16896 6.50459 4.65918 6.65155 4.2734 6.96729C3.88762 7.26122 3.6178 7.79741 3.52365 8.34049H7.91422H7.90675ZM28.6064 8.97944C28.6064 8.24462 28.41 7.65734 28.0237 7.26869C27.6379 6.84961 27.0994 6.65901 26.422 6.65901C25.7446 6.65901 25.2061 6.85707 24.8203 7.26869C24.4563 7.65791 24.2594 8.24462 24.2594 8.97944V15.1916H20.7937V8.97944C20.7937 8.24462 20.5974 7.65734 20.2116 7.26869C19.8252 6.84961 19.2936 6.65901 18.6099 6.65901C17.925 6.65901 17.3934 6.85707 17.0076 7.26869C16.6219 7.65791 16.4542 8.24462 16.4542 8.97944V15.1916H12.9592V3.74383H16.4542V5.19052C16.7964 4.69853 17.2551 4.33112 17.816 4.03719C18.423 3.75754 19.084 3.61467 19.7523 3.61868C20.6043 3.61868 21.3764 3.78746 22.0314 4.17669C22.7087 4.52003 23.2613 5.06717 23.6113 5.74106C24.0263 5.13139 24.5585 4.58831 25.2354 4.19908C25.9049 3.80963 26.6665 3.60664 27.441 3.61122C28.8457 3.61122 29.9893 4.0303 30.812 4.91151C31.6346 5.77034 32.0715 6.96729 32.0715 8.47999V11.9314C32.0715 12.541 32.3413 12.8568 32.8213 12.8568C33.0394 12.8568 33.3529 12.7615 33.6663 12.6363V13.0772C33.6663 14.5675 32.4062 15.3316 31.1174 15.3316C29.8291 15.3316 28.5696 14.6192 28.5696 12.4159L28.5983 8.96452L28.6058 8.97944H28.6064ZM34.2209 -0.00146484H37.694V5.43278C38.0287 4.86731 38.5161 4.45569 39.1206 4.11067C39.7251 3.79493 40.4313 3.61868 41.2028 3.61868C42.1501 3.61868 43.0014 3.86095 43.7517 4.35351C44.5015 4.84492 45.1129 5.52807 45.5498 6.43168C45.9866 7.31232 46.2054 8.36231 46.2054 9.53745C46.2054 13.1065 43.3436 15.3603 40.2125 15.3603C38.4656 15.3603 36.7468 14.8465 35.8007 13.8482C34.6572 12.6513 34.2203 11.3292 34.2203 9.46397L34.2209 -0.00146484ZM40.1913 12.2322C40.8681 12.2322 41.4795 11.9606 41.96 11.4979C42.4193 11.0059 42.6662 10.3452 42.6662 9.49325C42.6662 8.64131 42.4262 7.98055 41.96 7.46674C41.4721 6.97476 40.8681 6.68083 40.1907 6.68083C39.5133 6.68083 38.9094 6.95237 38.4438 7.43747C37.934 7.92199 37.6935 8.59022 37.6935 9.46397C37.6935 10.2935 37.934 10.9841 38.4432 11.4979C38.9025 11.9606 39.4846 12.2328 40.1907 12.2328L40.1913 12.2322ZM54.8476 3.61868V7.3347H53.8797C53.0277 7.3347 52.3727 7.50348 51.9358 7.89271C51.499 8.26012 51.2802 8.92031 51.2802 9.87501V15.1841H47.8151V3.7955H51.2808V5.65322C51.6698 5.04597 52.193 4.5361 52.8101 4.16291C53.4434 3.7955 54.099 3.62672 54.8481 3.62672V3.61926L54.8476 3.61868ZM64.2401 13.5543C63.8974 14.1198 63.4169 14.5308 62.8055 14.8764C62.201 15.1921 61.4437 15.3684 60.6722 15.3684C59.7255 15.3684 58.881 15.1255 58.1238 14.6336C57.3741 14.1416 56.7621 13.459 56.3252 12.5554C55.8889 11.6742 55.6702 10.6242 55.6702 9.44962C55.6702 8.27447 55.8884 7.2463 56.3252 6.34327C56.7621 5.46206 57.3666 4.7789 58.1238 4.28691C58.8736 3.82478 59.7473 3.60376 60.6722 3.60376C61.473 3.60376 62.1791 3.7513 62.7836 4.08886C63.3528 4.38552 63.8366 4.82287 64.189 5.3593V3.74383H67.6547V11.9388C67.6547 12.5485 67.924 12.8642 68.4045 12.8642C68.6232 12.8642 68.9361 12.7684 69.2564 12.6438V13.0841C69.2564 14.575 67.9969 15.3385 66.7081 15.3385C65.4192 15.3385 64.1161 14.6267 64.1161 12.4234L64.2401 13.5468V13.5543ZM61.6917 6.75431C61.0143 6.75431 60.4029 6.97476 59.9224 7.46674C59.4637 7.92945 59.2157 8.59022 59.2157 9.44962C59.2157 10.3084 59.4563 10.9623 59.9224 11.4543C60.4029 11.9681 61.0143 12.2104 61.6917 12.2104C62.3686 12.2104 62.98 11.9905 63.4387 11.4761C63.9485 10.9916 64.189 10.3234 64.189 9.47143C64.189 8.6195 63.9485 7.95873 63.4387 7.46674C62.98 6.97476 62.3979 6.75488 61.6917 6.75488V6.75431ZM80.5939 7.92199H77.1276C76.5966 6.45349 74.6086 6.15956 73.6837 7.3347C73.2979 7.84851 73.0287 8.56094 73.0287 9.48578C73.0287 10.4112 73.2979 11.1236 73.6837 11.6374C74.6522 12.8637 76.6471 12.4676 77.1276 11.0794H80.5939C80.3023 12.4015 79.6765 13.4515 78.7006 14.2369C76.0575 16.2932 71.8346 15.5073 70.3058 12.5996C69.796 11.7184 69.5555 10.6902 69.5555 9.49382C69.5555 8.29629 69.796 7.26869 70.3058 6.36508C72.5407 2.08417 79.9819 2.94357 80.5939 7.92945V7.92199ZM85.0936 10.3016C85.1659 10.9107 85.3846 11.5278 85.7997 11.8653C86.1636 12.2104 86.6734 12.3791 87.2774 12.3791C88.1511 12.3791 88.7849 12.0347 89.0978 11.4032H92.7604C92.5635 12.2328 92.2288 12.7982 91.6897 13.4366C91.1927 14.0443 90.5626 14.5294 89.8481 14.8546C89.0978 15.199 88.2969 15.3684 87.3503 15.3684C86.2584 15.3684 85.217 15.0963 84.3943 14.6336C83.5424 14.1932 82.8655 13.459 82.3558 12.5554C81.8971 11.7258 81.6054 10.6466 81.6054 9.47143C81.6054 8.29629 81.846 7.2463 82.3339 6.36566C82.7979 5.49015 83.5061 4.7682 84.3725 4.28749C85.217 3.82478 86.2365 3.60433 87.3577 3.60433C88.4789 3.60433 89.4399 3.84659 90.27 4.28749C91.122 4.74962 91.7994 5.41039 92.3086 6.2916C92.7673 7.12172 93.0153 8.1499 93.0153 9.30265C93.0153 9.67006 92.986 9.96342 92.9424 10.3084H85.1079L85.0936 10.3016ZM89.5054 8.34049C89.4835 7.82669 89.2872 7.31289 88.9232 6.99715C88.5156 6.65155 88.0059 6.50459 87.3503 6.50459C86.7681 6.50459 86.2584 6.65155 85.8726 6.96729C85.4862 7.26122 85.217 7.79741 85.1223 8.34049H89.5128H89.5054ZM1.98741 20.6625C2.19867 20.3393 2.6499 20.0385 3.17404 20.0385C4.12816 20.0385 4.89283 20.9054 4.89283 22.0725C4.89283 23.2402 4.12816 24.1065 3.17404 24.1065C2.65736 24.1065 2.20614 23.8131 1.98741 23.4675V25.8247H0.975883V20.0971H1.98799V20.6625H1.98741ZM3.88073 22.08C3.88073 21.4921 3.45821 21.0007 2.93407 21.0007C2.40994 21.0007 1.98741 21.4921 1.98741 22.08C1.98741 22.6672 2.40994 23.1592 2.93407 23.1592C3.45821 23.1592 3.88073 22.6672 3.88073 22.08ZM9.26158 22.3297H6.36363C6.43653 22.8578 6.82289 23.2178 7.39754 23.2178C7.87805 23.2178 8.16222 22.917 8.27876 22.6454L9.23977 22.8509C9.04343 23.46 8.46074 24.1065 7.39065 24.1065C6.10184 24.1065 5.36645 23.1885 5.36645 22.0725C5.36645 20.8899 6.14547 20.0385 7.37573 20.0385C8.30803 20.0385 9.26905 20.6183 9.27593 22.0208C9.27593 22.131 9.26905 22.212 9.25412 22.3297H9.26158ZM8.2644 21.6316C8.22766 21.2498 7.95096 20.8681 7.41247 20.8681C6.79304 20.8681 6.52379 21.2131 6.40783 21.6316H8.2644ZM9.60373 20.2951C10.3024 20.193 10.4844 19.7446 10.4844 18.8341H11.3656V20.1045H12.3777V20.9932H11.3656V22.6822C11.3656 23.3062 12.0206 23.2034 12.3777 23.1592V24.0479C12.1535 24.0841 11.9272 24.1062 11.7003 24.1139C11.0229 24.1139 10.3604 23.9084 10.3604 22.7114V20.9926H9.60316L9.60373 20.2951ZM16.1706 18.3863C16.5495 18.3863 16.8038 18.6653 16.8038 19.0253C16.8038 19.3846 16.549 19.6637 16.1706 19.6637C15.7917 19.6637 15.5369 19.3846 15.5369 19.0253C15.5369 18.6653 15.7992 18.3863 16.1706 18.3863ZM15.6609 20.1045C15.7917 20.178 15.9812 20.2222 16.1632 20.2222C16.3452 20.2222 16.5346 20.1706 16.6655 20.1045V24.0479H15.6534V20.1045H15.6609ZM21.2754 21.7562V24.0479H20.2633V21.8228C20.2633 21.1838 19.8918 20.9932 19.4555 20.9932C19.0623 20.9932 18.6174 21.3308 18.6174 21.9473V24.0479H17.6058V20.104H18.6179V20.7286C18.7999 20.3686 19.2661 20.0454 19.8195 20.0454C20.6783 20.0454 21.2679 20.5673 21.2679 21.7642L21.2754 21.7562ZM22.8552 22.638C22.8627 22.8877 23.0447 23.3211 23.7364 23.3211C24.3186 23.3211 24.5298 23.0857 24.5298 22.9095C24.5298 22.638 24.1222 22.6012 23.3868 22.4985C22.1709 22.3297 22.0033 21.7275 22.0033 21.2573C22.0033 20.7062 22.5418 20.046 23.7215 20.046C24.8209 20.046 25.3525 20.7062 25.411 21.2056L24.4426 21.4043C24.4207 21.2056 24.2456 20.8388 23.6997 20.8388C23.1899 20.8388 23.0154 21.0512 23.0154 21.2062C23.0154 21.3601 23.1027 21.507 23.8524 21.588C24.8794 21.6907 25.5419 21.9772 25.5419 22.8211C25.5419 23.5846 24.8863 24.1214 23.7072 24.1214C22.5274 24.1214 21.9229 23.4968 21.8868 22.8286L22.8552 22.638ZM26.1608 22.3957V20.1045H27.1729V22.3297C27.1729 22.9686 27.5443 23.1592 27.9737 23.1592C28.367 23.1592 28.8113 22.8217 28.8113 22.2045V20.1045H29.8234V24.0479H28.8113V23.4239C28.7042 23.6321 28.5411 23.8063 28.3404 23.927C28.1397 24.0477 27.9094 24.11 27.6752 24.107C26.8164 24.107 26.1608 23.5852 26.1608 22.3882V22.3957ZM33.5434 20.1045L33.3695 21.2131C32.6117 20.9048 31.7747 21.2131 31.7747 22.2637V24.0548H30.7626V20.112H31.7747V20.9341C32.0003 20.1998 32.823 19.965 33.544 20.112L33.5434 20.1045ZM36.4494 21.6465C36.4494 21.1763 36.2456 20.8755 35.6773 20.8755C35.1893 20.8755 34.9494 21.1471 34.8546 21.441L33.9229 21.228C34.0974 20.5965 34.7306 20.0454 35.7359 20.0454C36.6096 20.0454 37.4541 20.3979 37.4541 21.8595V22.9244C37.4541 23.3062 37.709 23.3722 37.833 23.3205V24.018C37.684 24.0843 37.5223 24.117 37.3594 24.1139C36.915 24.1139 36.6314 23.82 36.5654 23.3504C36.3186 23.754 35.8886 24.1139 35.2043 24.1139C34.3012 24.1139 33.7989 23.5703 33.7989 22.8653C33.7989 21.8153 34.9057 21.5506 36.4494 21.6465ZM35.4592 23.2838C35.9104 23.262 36.3691 22.8067 36.442 22.2998C35.663 22.212 34.8036 22.3222 34.8036 22.8142C34.8036 23.1374 35.0366 23.3062 35.4592 23.2838ZM42.1064 21.7562V24.0479H41.0943V21.8228C41.0943 21.1838 40.7235 20.9932 40.2935 20.9932C39.9002 20.9932 39.4565 21.3308 39.4565 21.9473V24.0479H38.4444V20.104H39.4565V20.7286C39.6385 20.3686 40.1046 20.0454 40.6574 20.0454C41.5168 20.0454 42.1064 20.5673 42.1064 21.7642V21.7562ZM44.7782 20.0385C45.9281 20.0385 46.5762 20.8973 46.6491 21.6316L45.6881 21.8228C45.637 21.4777 45.3528 20.9932 44.7707 20.9932C44.1226 20.9932 43.7443 21.4852 43.7443 22.0725C43.7443 22.6598 44.1226 23.1518 44.7707 23.1518C45.3528 23.1518 45.6376 22.6672 45.6881 22.3222L46.6491 22.5128C46.5762 23.2476 45.9355 24.1065 44.7776 24.1065C43.4963 24.1065 42.7322 23.1885 42.7322 22.0725C42.7322 20.9565 43.475 20.0385 44.7782 20.0385ZM50.9966 22.3297H48.0987C48.1716 22.8578 48.5579 23.2178 49.1326 23.2178C49.6137 23.2178 49.8973 22.917 50.0138 22.6454L50.9748 22.8509C50.7785 23.46 50.1958 24.1065 49.1257 24.1065C47.8369 24.1065 47.1015 23.1885 47.1015 22.0725C47.1015 20.8899 47.8805 20.0385 49.1108 20.0385C50.0431 20.0385 51.0041 20.6183 51.011 22.0208C51.011 22.131 51.0041 22.212 50.9897 22.3297H50.9966ZM49.992 21.6316C49.9558 21.2498 49.6791 20.8681 49.1401 20.8681C48.5212 20.8681 48.252 21.2131 48.1354 21.6316H49.992Z" fill="#511E78"/>
</g>
</g>
<defs>
<clipPath id="clip0_1_4475">
<rect width="93.001" height="25.8336" fill="white"/>
</clipPath>
</defs>
</svg>
