<svg width="73" height="25" viewBox="0 0 73 25" fill="none" xmlns="http://www.w3.org/2000/svg">
<g clip-path="url(#clip0_1_4522)">
<mask id="mask0_1_4522" style="mask-type:luminance" maskUnits="userSpaceOnUse" x="-1" y="0" width="74" height="24">
<path d="M72.9993 0.172363H-0.000976562V23.5876H72.9993V0.172363Z" fill="white"/>
</mask>
<g mask="url(#mask0_1_4522)">
<path d="M0.316828 22.6744C0.316828 22.3284 0.566608 22.037 0.905597 21.9824C2.24371 21.8002 2.68974 21.2356 2.68974 19.7421V11.273C2.68974 10.162 2.42212 9.92519 1.65494 9.92519H0.495242C0.174097 9.92519 -0.0756836 9.67024 -0.0756836 9.34236C-0.0756836 9.05098 0.120572 8.81421 0.406035 8.77778C1.79767 8.55919 2.68974 8.26781 2.68974 7.22969C2.68974 2.80386 5.63358 0.272217 10.1118 0.272217C12.5204 0.272217 14.8933 0.982532 14.8933 3.18633C14.8933 4.20627 14.3937 5.39012 12.5917 5.39012C9.18406 5.39012 10.4508 1.52893 8.80935 1.52893C7.77453 1.52893 7.70319 2.51244 7.70319 5.00765V7.13858C7.70319 8.04922 8.13141 8.24963 9.84416 8.24963H11.3071C11.771 8.24963 12.1457 8.63205 12.1457 9.10559C12.1457 9.57913 11.7532 9.96162 11.2893 9.96162L9.84416 9.92519C8.14925 9.88876 7.70319 10.1255 7.70319 11.3459V19.7421C7.70319 21.2721 8.16708 21.8366 10.0583 22.0005C10.4151 22.037 10.6827 22.3284 10.6827 22.6744C10.6827 23.0569 10.3794 23.3484 10.0048 23.3484H1.01265C0.637973 23.3665 0.316828 23.0569 0.316828 22.6744Z" fill="black"/>
<path d="M11.0571 15.808C11.0571 10.2529 15.5354 7.79419 19.6745 7.79419C23.2072 7.79419 26.0796 9.5973 26.0796 12.566C26.0796 15.553 23.1715 15.7898 20.2277 16.0266L17.6228 16.2269C17.0162 16.2633 16.6594 16.664 16.7843 17.6475C17.0162 19.742 19.4248 20.9259 21.655 20.9259C22.672 20.9259 24.0101 20.6709 25.1341 19.6692C25.4195 19.4142 25.8298 19.4142 26.1154 19.6692L26.1332 19.6874C26.4187 19.9424 26.4543 20.3977 26.2224 20.6891C25.2054 21.964 22.7255 23.5668 19.3534 23.5668C15.1964 23.5668 11.0571 21.1262 11.0571 15.808ZM19.1036 14.7516C21.4052 14.5148 21.8691 13.9138 21.8691 12.5842C21.8691 10.9633 21.2089 9.34228 19.4605 9.34228C17.5157 9.34228 16.7486 11.3093 16.7486 13.2035C16.7486 14.3509 16.9805 14.9338 17.8904 14.8973L19.1036 14.7516Z" fill="black"/>
<path d="M28.1856 18.5219V11.1091C28.1856 9.92517 27.918 9.6884 27.1508 9.6884H26.2409C25.9019 9.6884 25.6343 9.4152 25.6343 9.08739C25.6343 8.81419 25.8127 8.57742 26.0803 8.50456C28.5603 7.83068 29.8092 6.59218 30.8797 4.8255C31.1473 4.38839 31.3793 4.24268 31.8074 4.24268H32.4141C32.9136 4.24268 33.2169 4.5523 33.2169 5.06228L33.1812 7.15681C33.1812 7.90354 33.5559 8.10388 35.2508 8.10388H36.5711C37.0528 8.10388 37.4275 8.48638 37.4275 8.9781C37.4275 9.46988 37.0172 9.87056 36.5176 9.85238L35.2508 9.77951C33.5559 9.67022 33.1812 9.97985 33.1812 11.2001V18.3761C33.1812 20.2338 33.4131 21.4906 34.7156 21.4906C35.0189 21.4906 35.6791 21.4359 36.25 21.1627C36.5533 21.0353 36.8922 21.1081 37.0885 21.3813C37.3026 21.6727 37.2491 22.0734 36.9815 22.3102C36.0715 23.0933 34.6977 23.5487 33.1099 23.5487C30.0233 23.5304 28.1856 21.8002 28.1856 18.5219Z" fill="black"/>
<path d="M36.6958 15.7717C36.6958 10.2531 41.174 7.77612 45.2418 7.77612C49.0242 7.77612 51.7182 9.94347 51.7182 12.3841C51.7182 13.4951 51.183 14.7154 49.4881 14.7154C47.6504 14.7154 47.2222 13.2947 47.0438 12.4205C46.8833 11.2002 47.0795 9.34246 45.0099 9.34246C42.7975 9.34246 42.0661 11.437 42.0661 13.8411C42.0661 18.0302 44.2784 20.8897 47.5434 20.8897C48.3106 20.8897 49.3811 20.7075 50.3801 19.6147C50.6121 19.3598 50.9868 19.3415 51.2544 19.5418C51.5399 19.7422 51.629 20.1429 51.4328 20.4525C50.5407 21.8732 48.2571 23.5852 44.9385 23.5852C40.9063 23.567 36.6958 21.0171 36.6958 15.7717Z" fill="black"/>
<path d="M72.5743 19.6874C72.4131 19.6874 72.2348 19.7602 72.0922 19.9242C71.4504 20.598 71.0399 20.9077 70.3795 20.9077C70.1832 20.9077 70.0227 20.8894 69.8802 20.8348C69.4876 20.6891 69.3981 20.252 69.3623 20.0699C69.3623 20.0152 69.3623 19.9423 69.3623 19.8877V13.5678C69.3623 8.63197 66.9183 7.64846 64.5454 7.64846C62.1725 7.64846 60.763 8.63197 59.9423 9.74295C59.5498 10.2894 58.8004 10.089 58.8004 8.92335V2.60339C58.8004 1.58345 58.2652 1.07348 57.1234 1.25561L52.2705 2.07521C51.9315 2.12985 51.6817 2.42126 51.6817 2.7673C51.6817 3.14978 51.9672 3.44119 52.3418 3.47762C53.2161 3.53226 53.787 3.96938 53.787 5.2443V19.5963C53.787 21.1809 53.3588 21.7819 52.217 21.964C51.8958 22.0186 51.646 22.3101 51.646 22.6562C51.646 23.0386 51.9494 23.3482 52.3418 23.3482H60.1742C60.5489 23.3482 60.8701 23.0386 60.8701 22.6562C60.8701 22.3283 60.6381 22.0369 60.317 21.964C59.2287 21.7637 58.8004 21.1809 58.8004 19.5963V14.3509C58.8004 12.3475 59.7282 10.6536 61.5658 10.6536C63.4035 10.6536 64.3313 12.3475 64.3313 14.3509V19.8331C64.3313 21.7454 65.2234 22.9111 66.5971 23.3482C66.6685 23.3846 66.7577 23.4029 66.8469 23.4211C66.8648 23.4211 66.8826 23.4211 66.8826 23.4211C66.9183 23.4211 66.9539 23.4393 67.0075 23.4575C67.0432 23.4575 67.061 23.4575 67.0967 23.4757C67.2752 23.5121 67.4535 23.5304 67.6498 23.5485C68.756 23.6397 69.6123 23.4939 69.6123 23.4939C70.9325 23.3118 71.7355 22.7654 72.3601 21.8912C72.6631 21.4541 73.0557 20.7438 73.0557 20.252C73.0915 19.9059 72.8594 19.6874 72.5743 19.6874Z" fill="black"/>
<path d="M71.6066 7.70554C71.3332 7.70554 71.0894 7.64556 70.8759 7.52566C70.6666 7.40107 70.5027 7.23276 70.3842 7.02058C70.2658 6.80377 70.2065 6.557 70.2065 6.28025C70.2065 6.00811 70.2658 5.76365 70.3842 5.54686C70.5027 5.33007 70.6666 5.16171 70.8759 5.04179C71.0894 4.91725 71.3332 4.85498 71.6066 4.85498C71.8752 4.85498 72.1135 4.91725 72.3236 5.04179C72.537 5.16171 72.703 5.33007 72.8215 5.54686C72.9399 5.76365 72.9991 6.00811 72.9991 6.28025C72.9991 6.557 72.9399 6.80377 72.8215 7.02058C72.703 7.23276 72.537 7.40107 72.3236 7.52566C72.1135 7.64556 71.8752 7.70554 71.6066 7.70554ZM71.6066 7.42187C71.9338 7.42187 72.1982 7.31575 72.3986 7.10356C72.5983 6.89138 72.6989 6.61697 72.6989 6.28025C72.6989 5.94815 72.5983 5.67601 72.3986 5.46383C72.1982 5.25165 71.9338 5.14557 71.6066 5.14557C71.274 5.14557 71.0082 5.25165 70.8078 5.46383C70.6074 5.67601 70.5075 5.94815 70.5075 6.28025C70.5075 6.61697 70.6074 6.89138 70.8078 7.10356C71.0082 7.31575 71.274 7.42187 71.6066 7.42187ZM71.0398 7.00673V5.5261H71.7223C71.8725 5.5261 71.993 5.56762 72.0846 5.65064C72.1755 5.73367 72.2209 5.84668 72.2209 5.98966C72.2209 6.21568 72.1135 6.36097 71.9 6.42555L72.2822 7.00673H71.8587L71.5247 6.4463H71.4014V7.00673H71.0398ZM71.4014 6.16955H71.6748C71.7244 6.16955 71.7678 6.15802 71.8043 6.13496C71.8408 6.10728 71.8587 6.06347 71.8587 6.0035C71.8587 5.94815 71.8408 5.90895 71.8043 5.88588C71.7678 5.86282 71.7244 5.85129 71.6748 5.85129H71.4014V6.16955Z" fill="black"/>
</g>
</g>
<defs>
<clipPath id="clip0_1_4522">
<rect width="73.0003" height="24.1039" fill="white"/>
</clipPath>
</defs>
</svg>
