<svg width="17" height="14" viewBox="0 0 17 14" fill="none" xmlns="http://www.w3.org/2000/svg">
<path d="M14.3887 3.88894L8.16645 7.77783L1.94423 3.88894V2.33339L8.16645 6.22228L14.3887 2.33339V3.88894ZM14.3887 0.777832H1.94423C1.08089 0.777832 0.388672 1.47005 0.388672 2.33339V11.6667C0.388672 12.0793 0.55256 12.4749 0.844283 12.7667C1.13601 13.0584 1.53167 13.2223 1.94423 13.2223H14.3887C14.8012 13.2223 15.1969 13.0584 15.4886 12.7667C15.7803 12.4749 15.9442 12.0793 15.9442 11.6667V2.33339C15.9442 1.92083 15.7803 1.52517 15.4886 1.23344C15.1969 0.94172 14.8012 0.777832 14.3887 0.777832Z" fill="#333333"/>
</svg>
